<svg width="494" height="482" viewBox="0 0 494 482" fill="none" xmlns="http://www.w3.org/2000/svg">
<rect x="1.5" y="258.5" width="222" height="222" rx="23.5" fill="url(#paint0_linear_51_23)" stroke="white" stroke-width="3"/>
<rect x="7.5" y="33.5" width="222" height="222" rx="23.5" fill="url(#paint1_linear_51_23)" stroke="white" stroke-width="3"/>
<rect x="448.5" y="480.5" width="222" height="222" rx="23.5" transform="rotate(-180 448.5 480.5)" fill="url(#paint2_linear_51_23)" stroke="white" stroke-width="3"/>
<path d="M474.726 172.961L353.405 299.081C344.407 308.435 329.531 308.723 320.177 299.726L194.057 178.405C184.703 169.407 184.415 154.531 193.413 145.177L314.733 19.057C323.731 9.70347 338.608 9.41494 347.961 18.4126L474.081 139.733C483.435 148.731 483.723 163.608 474.726 172.961Z" fill="url(#paint3_linear_51_23)" stroke="white" stroke-width="3"/>
<defs>
<linearGradient id="paint0_linear_51_23" x1="112.5" y1="257" x2="112.5" y2="482" gradientUnits="userSpaceOnUse">
<stop/>
<stop offset="1" stop-color="#000A68"/>
</linearGradient>
<linearGradient id="paint1_linear_51_23" x1="118.5" y1="32" x2="118.5" y2="257" gradientUnits="userSpaceOnUse">
<stop/>
<stop offset="1" stop-color="#000A68"/>
</linearGradient>
<linearGradient id="paint2_linear_51_23" x1="562.5" y1="482" x2="562.5" y2="707" gradientUnits="userSpaceOnUse">
<stop/>
<stop offset="1" stop-color="#000A68"/>
</linearGradient>
<linearGradient id="paint3_linear_51_23" x1="419.776" y1="238.739" x2="257.622" y2="82.7554" gradientUnits="userSpaceOnUse">
<stop/>
<stop offset="1" stop-color="#000A68"/>
</linearGradient>
</defs>
</svg>
